<svg width="154" height="54" viewBox="0 0 154 54" fill="none" xmlns="http://www.w3.org/2000/svg">
<path d="M10.832 16.528C9.69067 17.68 8.26133 18.256 6.544 18.256C4.82667 18.256 3.40267 17.68 2.272 16.528C1.13067 15.3867 0.56 13.9787 0.56 12.304C0.56 10.64 1.13067 9.22667 2.272 8.064C3.40267 6.912 4.82667 6.336 6.544 6.336C8.26133 6.336 9.69067 6.912 10.832 8.064C11.9733 9.22667 12.544 10.64 12.544 12.304C12.544 13.9787 11.9733 15.3867 10.832 16.528ZM6.544 17.248C7.96267 17.248 9.136 16.7733 10.064 15.824C10.992 14.8853 11.456 13.712 11.456 12.304C11.456 10.896 10.992 9.71733 10.064 8.768C9.136 7.81867 7.96267 7.344 6.544 7.344C5.136 7.344 3.968 7.81867 3.04 8.768C2.112 9.71733 1.648 10.896 1.648 12.304C1.648 13.712 2.112 14.8853 3.04 15.824C3.968 16.7733 5.136 17.248 6.544 17.248ZM6.608 15.904C5.648 15.904 4.88 15.5733 4.304 14.912C3.71733 14.2613 3.424 13.392 3.424 12.304C3.424 11.2053 3.712 10.3307 4.288 9.68C4.864 9.02933 5.63733 8.704 6.608 8.704C7.42933 8.704 8.10133 8.93333 8.624 9.392C9.15733 9.84 9.47733 10.4533 9.584 11.232H8.416C8.33067 10.752 8.12267 10.3787 7.792 10.112C7.472 9.84533 7.07733 9.712 6.608 9.712C5.97867 9.712 5.48267 9.94133 5.12 10.4C4.768 10.8587 4.592 11.4933 4.592 12.304C4.592 13.1147 4.768 13.7493 5.12 14.208C5.48267 14.656 5.97867 14.88 6.608 14.88C7.07733 14.88 7.47733 14.7467 7.808 14.48C8.13867 14.2133 8.34133 13.8347 8.416 13.344H9.584C9.46667 14.1227 9.14133 14.7467 8.608 15.216C8.07467 15.6747 7.408 15.904 6.608 15.904ZM19.0522 16.784H25.0682V18H17.5482L17.5802 17.376C17.6442 16.4373 17.8576 15.632 18.2202 14.96C18.5829 14.288 19.1962 13.7013 20.0602 13.2L21.5002 12.368C22.2256 11.9413 22.7376 11.5253 23.0362 11.12C23.3456 10.7147 23.5002 10.224 23.5002 9.648C23.5002 9.01867 23.2976 8.51733 22.8922 8.144C22.4976 7.76 21.9482 7.568 21.2442 7.568C19.6549 7.568 18.8602 8.384 18.8602 10.016H17.5322C17.5216 8.85333 17.8469 7.952 18.5082 7.312C19.1696 6.672 20.0922 6.352 21.2762 6.352C22.3536 6.352 23.2282 6.656 23.9002 7.264C24.5722 7.89333 24.9082 8.688 24.9082 9.648C24.9082 11.12 24.0442 12.3573 22.3162 13.36L21.1002 14.064C20.3962 14.4907 19.8896 14.9067 19.5802 15.312C19.2709 15.7067 19.0949 16.1973 19.0522 16.784ZM33.6635 16.72C32.9702 17.744 31.9408 18.256 30.5755 18.256C29.1995 18.256 28.1702 17.744 27.4875 16.72C26.7942 15.6853 26.4475 14.2133 26.4475 12.304C26.4475 10.3947 26.7942 8.92267 27.4875 7.888C28.1702 6.864 29.1995 6.352 30.5755 6.352C31.9408 6.352 32.9702 6.864 33.6635 7.888C34.3568 8.92267 34.7035 10.3947 34.7035 12.304C34.7035 14.2133 34.3568 15.6853 33.6635 16.72ZM30.5755 7.568C28.7622 7.568 27.8555 9.14667 27.8555 12.304C27.8555 15.4613 28.7622 17.04 30.5755 17.04C32.3888 17.04 33.2955 15.4613 33.2955 12.304C33.2955 9.14667 32.3888 7.568 30.5755 7.568ZM37.6766 16.784H43.6926V18H36.1726L36.2046 17.376C36.2686 16.4373 36.482 15.632 36.8446 14.96C37.2073 14.288 37.8206 13.7013 38.6846 13.2L40.1246 12.368C40.85 11.9413 41.362 11.5253 41.6606 11.12C41.97 10.7147 42.1246 10.224 42.1246 9.648C42.1246 9.01867 41.922 8.51733 41.5166 8.144C41.122 7.76 40.5726 7.568 39.8686 7.568C38.2793 7.568 37.4846 8.384 37.4846 10.016H36.1566C36.146 8.85333 36.4713 7.952 37.1326 7.312C37.794 6.672 38.7166 6.352 39.9006 6.352C40.978 6.352 41.8526 6.656 42.5246 7.264C43.1966 7.89333 43.5326 8.688 43.5326 9.648C43.5326 11.12 42.6686 12.3573 40.9406 13.36L39.7246 14.064C39.0206 14.4907 38.514 14.9067 38.2046 15.312C37.8953 15.7067 37.7193 16.1973 37.6766 16.784ZM50.9137 11.936C52.1831 12.5973 52.8177 13.552 52.8177 14.8C52.8177 15.8347 52.4551 16.6667 51.7297 17.296C51.0151 17.936 50.0711 18.256 48.8977 18.256C47.6284 18.256 46.6417 17.9253 45.9377 17.264C45.2444 16.6027 44.9031 15.7013 44.9137 14.56H46.2417C46.2631 15.3707 46.5031 15.9893 46.9617 16.416C47.4204 16.832 48.0657 17.04 48.8977 17.04C49.6657 17.04 50.2737 16.8373 50.7217 16.432C51.1804 16.0267 51.4097 15.4827 51.4097 14.8C51.4097 14.1067 51.1751 13.5573 50.7057 13.152C50.2471 12.736 49.6177 12.528 48.8177 12.528H47.9697V11.408H48.7377C49.4951 11.408 50.0764 11.2373 50.4817 10.896C50.8977 10.5547 51.1057 10.08 51.1057 9.472C51.1057 8.87467 50.8977 8.41067 50.4817 8.08C50.0764 7.73867 49.5217 7.568 48.8177 7.568C48.1031 7.568 47.5324 7.75467 47.1057 8.128C46.6897 8.49067 46.4657 9.02933 46.4337 9.744H45.0897C45.1004 8.70933 45.4364 7.888 46.0977 7.28C46.7697 6.66133 47.6764 6.352 48.8177 6.352C49.9164 6.352 50.7964 6.62933 51.4577 7.184C52.1297 7.728 52.4657 8.48 52.4657 9.44C52.4657 10.528 51.9484 11.36 50.9137 11.936ZM63.2921 13.36V12.144H68.1401V18H67.0361L66.7481 16.464C65.9055 17.6587 64.6628 18.256 63.0201 18.256C61.3881 18.256 60.0868 17.7067 59.1161 16.608C58.1241 15.52 57.6281 14.0853 57.6281 12.304C57.6281 10.5333 58.1188 9.09333 59.1001 7.984C60.0708 6.896 61.3828 6.352 63.0361 6.352C64.3908 6.352 65.5108 6.71467 66.3961 7.44C67.2815 8.16533 67.8201 9.13067 68.0121 10.336H66.6201C66.4815 9.49333 66.0761 8.82133 65.4041 8.32C64.7535 7.82933 63.9641 7.584 63.0361 7.584C61.8201 7.584 60.8495 8.01067 60.1241 8.864C59.3988 9.71733 59.0361 10.864 59.0361 12.304C59.0361 13.744 59.3988 14.8907 60.1241 15.744C60.8495 16.5973 61.8201 17.024 63.0361 17.024C64.1135 17.024 65.0308 16.6773 65.7881 15.984C66.5455 15.2907 66.9241 14.416 66.9241 13.36H63.2921ZM76.7812 17.008C76.0239 17.7973 75.0639 18.192 73.9012 18.192C72.7386 18.192 71.7786 17.7973 71.0212 17.008C70.2746 16.2293 69.9012 15.184 69.9012 13.872C69.9012 12.56 70.2746 11.5147 71.0212 10.736C71.7786 9.94667 72.7386 9.552 73.9012 9.552C75.0639 9.552 76.0239 9.94667 76.7812 10.736C77.5279 11.5147 77.9012 12.56 77.9012 13.872C77.9012 15.184 77.5279 16.2293 76.7812 17.008ZM71.9652 16.192C72.4452 16.7573 73.0906 17.04 73.9012 17.04C74.7119 17.04 75.3572 16.7573 75.8372 16.192C76.3172 15.6373 76.5572 14.864 76.5572 13.872C76.5572 12.8693 76.3172 12.0907 75.8372 11.536C75.3572 10.9813 74.7119 10.704 73.9012 10.704C73.0906 10.704 72.4452 10.9813 71.9652 11.536C71.4852 12.0907 71.2452 12.8693 71.2452 13.872C71.2452 14.864 71.4852 15.6373 71.9652 16.192ZM86.2262 17.008C85.4689 17.7973 84.5089 18.192 83.3462 18.192C82.1836 18.192 81.2236 17.7973 80.4662 17.008C79.7196 16.2293 79.3462 15.184 79.3462 13.872C79.3462 12.56 79.7196 11.5147 80.4662 10.736C81.2236 9.94667 82.1836 9.552 83.3462 9.552C84.5089 9.552 85.4689 9.94667 86.2262 10.736C86.9729 11.5147 87.3462 12.56 87.3462 13.872C87.3462 15.184 86.9729 16.2293 86.2262 17.008ZM81.4102 16.192C81.8902 16.7573 82.5356 17.04 83.3462 17.04C84.1569 17.04 84.8022 16.7573 85.2822 16.192C85.7622 15.6373 86.0022 14.864 86.0022 13.872C86.0022 12.8693 85.7622 12.0907 85.2822 11.536C84.8022 10.9813 84.1569 10.704 83.3462 10.704C82.5356 10.704 81.8902 10.9813 81.4102 11.536C80.9302 12.0907 80.6902 12.8693 80.6902 13.872C80.6902 14.864 80.9302 15.6373 81.4102 16.192ZM91.947 18.192C89.739 18.192 88.571 17.2533 88.443 15.376H89.739C89.8137 15.9947 90.0163 16.4373 90.347 16.704C90.6883 16.96 91.2217 17.088 91.947 17.088C93.2697 17.088 93.931 16.6613 93.931 15.808C93.931 15.4347 93.7923 15.152 93.515 14.96C93.2483 14.768 92.7577 14.6027 92.043 14.464L91.275 14.32C89.5577 14 88.699 13.1893 88.699 11.888C88.699 11.1733 88.9657 10.608 89.499 10.192C90.043 9.76533 90.779 9.552 91.707 9.552C93.8937 9.552 95.0137 10.464 95.067 12.288H93.787C93.755 11.6907 93.5737 11.2693 93.243 11.024C92.9123 10.7787 92.4003 10.656 91.707 10.656C91.1523 10.656 90.7257 10.7627 90.427 10.976C90.1283 11.1893 89.979 11.488 89.979 11.872C89.979 12.2347 90.107 12.5067 90.363 12.688C90.619 12.8693 91.0457 13.024 91.643 13.152L92.379 13.296C93.3923 13.4987 94.1177 13.7867 94.555 14.16C95.003 14.5333 95.227 15.056 95.227 15.728C95.227 16.5067 94.9337 17.1147 94.347 17.552C93.771 17.9787 92.971 18.192 91.947 18.192ZM104.024 13.872V14.32H97.7517C97.8157 15.216 98.0664 15.8933 98.5037 16.352C98.9411 16.8 99.5384 17.024 100.296 17.024C101.437 17.024 102.168 16.512 102.488 15.488H103.816C103.592 16.32 103.176 16.9813 102.568 17.472C101.96 17.952 101.192 18.192 100.264 18.192C99.1224 18.192 98.1997 17.8027 97.4957 17.024C96.7811 16.2453 96.4237 15.1947 96.4237 13.872C96.4237 12.5707 96.7757 11.5253 97.4797 10.736C98.1731 9.94667 99.0904 9.552 100.232 9.552C101.416 9.552 102.344 9.96267 103.016 10.784C103.688 11.6053 104.024 12.6347 104.024 13.872ZM100.232 10.72C99.5597 10.72 99.0104 10.9333 98.5837 11.36C98.1571 11.776 97.8904 12.3787 97.7837 13.168H102.648C102.584 12.4427 102.338 11.856 101.912 11.408C101.485 10.9493 100.925 10.72 100.232 10.72ZM114.493 13.36V12.144H119.341V18H118.237L117.949 16.464C117.107 17.6587 115.864 18.256 114.221 18.256C112.589 18.256 111.288 17.7067 110.317 16.608C109.325 15.52 108.829 14.0853 108.829 12.304C108.829 10.5333 109.32 9.09333 110.301 7.984C111.272 6.896 112.584 6.352 114.237 6.352C115.592 6.352 116.712 6.71467 117.597 7.44C118.483 8.16533 119.021 9.13067 119.213 10.336H117.821C117.683 9.49333 117.277 8.82133 116.605 8.32C115.955 7.82933 115.165 7.584 114.237 7.584C113.021 7.584 112.051 8.01067 111.325 8.864C110.6 9.71733 110.237 10.864 110.237 12.304C110.237 13.744 110.6 14.8907 111.325 15.744C112.051 16.5973 113.021 17.024 114.237 17.024C115.315 17.024 116.232 16.6773 116.989 15.984C117.747 15.2907 118.125 14.416 118.125 13.36H114.493ZM125.453 9.616C125.666 9.616 125.81 9.62133 125.885 9.632V10.864H125.565C124.711 10.864 124.045 11.0773 123.565 11.504C123.095 11.92 122.861 12.5173 122.861 13.296V18H121.581V9.744H122.797V11.2C123.351 10.144 124.237 9.616 125.453 9.616ZM133.396 17.008C132.639 17.7973 131.679 18.192 130.516 18.192C129.354 18.192 128.394 17.7973 127.636 17.008C126.89 16.2293 126.516 15.184 126.516 13.872C126.516 12.56 126.89 11.5147 127.636 10.736C128.394 9.94667 129.354 9.552 130.516 9.552C131.679 9.552 132.639 9.94667 133.396 10.736C134.143 11.5147 134.516 12.56 134.516 13.872C134.516 15.184 134.143 16.2293 133.396 17.008ZM128.58 16.192C129.06 16.7573 129.706 17.04 130.516 17.04C131.327 17.04 131.972 16.7573 132.452 16.192C132.932 15.6373 133.172 14.864 133.172 13.872C133.172 12.8693 132.932 12.0907 132.452 11.536C131.972 10.9813 131.327 10.704 130.516 10.704C129.706 10.704 129.06 10.9813 128.58 11.536C128.1 12.0907 127.86 12.8693 127.86 13.872C127.86 14.864 128.1 15.6373 128.58 16.192ZM141.567 14.416V9.744H142.847V18H141.631V16.768C141.002 17.7173 140.138 18.192 139.039 18.192C138.122 18.192 137.407 17.9413 136.895 17.44C136.383 16.9387 136.127 16.2347 136.127 15.328V9.744H137.407V15.2C137.407 16.4267 138.036 17.04 139.295 17.04C139.892 17.04 140.42 16.816 140.879 16.368C141.338 15.92 141.567 15.2693 141.567 14.416ZM149.136 9.552C150.298 9.552 151.232 9.94133 151.936 10.72C152.629 11.5093 152.976 12.56 152.976 13.872C152.976 15.1733 152.629 16.2187 151.936 17.008C151.232 17.7973 150.298 18.192 149.136 18.192C147.952 18.192 147.029 17.7333 146.368 16.816V21.136H145.088V9.744H146.304V11.024C146.965 10.0427 147.909 9.552 149.136 9.552ZM148.976 17.04C149.776 17.04 150.416 16.752 150.896 16.176C151.386 15.5893 151.632 14.8 151.632 13.808C151.632 12.8373 151.392 12.08 150.912 11.536C150.442 10.9813 149.797 10.704 148.976 10.704C148.165 10.704 147.52 10.9813 147.04 11.536C146.56 12.0907 146.32 12.8693 146.32 13.872C146.32 14.864 146.56 15.6373 147.04 16.192C147.52 16.7573 148.165 17.04 148.976 17.04Z" fill="#989EA4"/>
<path d="M1.04 36.608H5.776C6.98133 36.608 7.90933 36.9227 8.56 37.552C9.22133 38.1813 9.552 39.0347 9.552 40.112C9.552 41.1893 9.22133 42.0427 8.56 42.672C7.90933 43.3013 6.98133 43.616 5.776 43.616H2.384V48H1.04V36.608ZM2.384 42.4H5.776C6.56533 42.4 7.15733 42.208 7.552 41.824C7.95733 41.4293 8.16 40.8587 8.16 40.112C8.16 39.3653 7.95733 38.8 7.552 38.416C7.15733 38.0213 6.56533 37.824 5.776 37.824H2.384V42.4ZM15.0114 39.616C15.2247 39.616 15.3687 39.6213 15.4434 39.632V40.864H15.1234C14.27 40.864 13.6034 41.0773 13.1234 41.504C12.654 41.92 12.4194 42.5173 12.4194 43.296V48H11.1394V39.744H12.3554V41.2C12.91 40.144 13.7954 39.616 15.0114 39.616ZM18.2714 38.496H16.9114V36.928H18.2714V38.496ZM18.2394 48H16.9594V39.744H18.2394V48ZM24.6124 43.408L25.9724 39.744H27.3484L24.1004 48H22.7564L19.5244 39.744H20.9164L22.2764 43.424C22.9484 45.2267 23.3377 46.2933 23.4444 46.624C23.6364 46.0587 24.0257 44.9867 24.6124 43.408ZM35.0545 46.96H35.5185V48C35.3052 48.032 35.0705 48.048 34.8145 48.048C33.9505 48.048 33.4865 47.6533 33.4225 46.864C32.8465 47.7493 31.9505 48.192 30.7345 48.192C29.8278 48.192 29.1132 47.984 28.5905 47.568C28.0785 47.1413 27.8225 46.544 27.8225 45.776C27.8225 44.2827 28.8412 43.4293 30.8785 43.216L32.0625 43.088C32.9265 42.992 33.3585 42.6133 33.3585 41.952C33.3585 41.4933 33.2145 41.1627 32.9265 40.96C32.6492 40.7573 32.1745 40.656 31.5025 40.656C30.7878 40.656 30.2705 40.7787 29.9505 41.024C29.6412 41.2587 29.4652 41.68 29.4225 42.288H28.1425C28.2492 40.464 29.3692 39.552 31.5025 39.552C33.5718 39.552 34.6065 40.352 34.6065 41.952V46.56C34.6065 46.8267 34.7558 46.96 35.0545 46.96ZM30.7985 47.104C31.4812 47.104 32.0785 46.896 32.5905 46.48C33.1025 46.0747 33.3585 45.4933 33.3585 44.736V43.76C33.1238 43.9413 32.7612 44.0587 32.2705 44.112L31.0705 44.256C30.3772 44.3413 29.8812 44.5013 29.5825 44.736C29.2945 44.9707 29.1505 45.3067 29.1505 45.744C29.1505 46.1707 29.2892 46.5067 29.5665 46.752C29.8438 46.9867 30.2545 47.104 30.7985 47.104ZM40.3121 48.192C39.1708 48.192 38.2481 47.7973 37.5441 47.008C36.8401 46.2187 36.4881 45.1733 36.4881 43.872C36.4881 42.5493 36.8401 41.4987 37.5441 40.72C38.2268 39.9413 39.1495 39.552 40.3121 39.552C41.2935 39.552 42.0988 39.8187 42.7281 40.352C43.3575 40.8853 43.7361 41.616 43.8641 42.544H42.5361C42.4401 41.9573 42.1841 41.504 41.7681 41.184C41.3628 40.864 40.8775 40.704 40.3121 40.704C39.5548 40.704 38.9521 40.9813 38.5041 41.536C38.0561 42.08 37.8321 42.8587 37.8321 43.872C37.8321 44.8747 38.0561 45.6533 38.5041 46.208C38.9628 46.7627 39.5655 47.04 40.3121 47.04C40.8775 47.04 41.3681 46.8747 41.7841 46.544C42.2001 46.2133 42.4561 45.7547 42.5521 45.168H43.8641C43.7255 46.096 43.3308 46.832 42.6801 47.376C42.0401 47.92 41.2508 48.192 40.3121 48.192ZM49.4596 43.168L50.6276 39.744H52.0196L48.5316 49.296C48.2863 49.9893 47.9503 50.4747 47.5236 50.752C47.097 51.04 46.537 51.184 45.8436 51.184C45.609 51.184 45.353 51.168 45.0756 51.136V50.064H45.8276C46.5636 50.064 47.065 49.7227 47.3316 49.04L47.6196 48.272L44.5156 39.744H45.9236L47.0916 43.184C47.5076 44.4 47.9023 45.5893 48.2756 46.752C48.585 45.76 48.9796 44.5653 49.4596 43.168ZM60.7868 39.552C61.9494 39.552 62.8828 39.9413 63.5868 40.72C64.2801 41.5093 64.6268 42.56 64.6268 43.872C64.6268 45.1733 64.2801 46.2187 63.5868 47.008C62.8828 47.7973 61.9494 48.192 60.7868 48.192C59.6028 48.192 58.6801 47.7333 58.0188 46.816V51.136H56.7388V39.744H57.9548V41.024C58.6161 40.0427 59.5601 39.552 60.7868 39.552ZM60.6268 47.04C61.4268 47.04 62.0668 46.752 62.5468 46.176C63.0374 45.5893 63.2828 44.8 63.2828 43.808C63.2828 42.8373 63.0428 42.08 62.5628 41.536C62.0934 40.9813 61.4481 40.704 60.6268 40.704C59.8161 40.704 59.1708 40.9813 58.6908 41.536C58.2108 42.0907 57.9708 42.8693 57.9708 43.872C57.9708 44.864 58.2108 45.6373 58.6908 46.192C59.1708 46.7573 59.8161 47.04 60.6268 47.04ZM72.945 47.008C72.1877 47.7973 71.2277 48.192 70.065 48.192C68.9023 48.192 67.9423 47.7973 67.185 47.008C66.4383 46.2293 66.065 45.184 66.065 43.872C66.065 42.56 66.4383 41.5147 67.185 40.736C67.9423 39.9467 68.9023 39.552 70.065 39.552C71.2277 39.552 72.1877 39.9467 72.945 40.736C73.6917 41.5147 74.065 42.56 74.065 43.872C74.065 45.184 73.6917 46.2293 72.945 47.008ZM68.129 46.192C68.609 46.7573 69.2543 47.04 70.065 47.04C70.8757 47.04 71.521 46.7573 72.001 46.192C72.481 45.6373 72.721 44.864 72.721 43.872C72.721 42.8693 72.481 42.0907 72.001 41.536C71.521 40.9813 70.8757 40.704 70.065 40.704C69.2543 40.704 68.609 40.9813 68.129 41.536C67.649 42.0907 67.409 42.8693 67.409 43.872C67.409 44.864 67.649 45.6373 68.129 46.192ZM77.19 48H75.91V36.608H77.19V48ZM80.7451 38.496H79.3851V36.928H80.7451V38.496ZM80.7131 48H79.4331V39.744H80.7131V48ZM86.3802 48.192C85.2389 48.192 84.3162 47.7973 83.6122 47.008C82.9082 46.2187 82.5562 45.1733 82.5562 43.872C82.5562 42.5493 82.9082 41.4987 83.6122 40.72C84.2949 39.9413 85.2176 39.552 86.3802 39.552C87.3616 39.552 88.1669 39.8187 88.7962 40.352C89.4256 40.8853 89.8042 41.616 89.9322 42.544H88.6042C88.5082 41.9573 88.2522 41.504 87.8362 41.184C87.4309 40.864 86.9456 40.704 86.3802 40.704C85.6229 40.704 85.0202 40.9813 84.5722 41.536C84.1242 42.08 83.9002 42.8587 83.9002 43.872C83.9002 44.8747 84.1242 45.6533 84.5722 46.208C85.0309 46.7627 85.6336 47.04 86.3802 47.04C86.9456 47.04 87.4362 46.8747 87.8522 46.544C88.2682 46.2133 88.5242 45.7547 88.6202 45.168H89.9322C89.7936 46.096 89.3989 46.832 88.7482 47.376C88.1082 47.92 87.3189 48.192 86.3802 48.192ZM95.5278 43.168L96.6958 39.744H98.0878L94.5998 49.296C94.3544 49.9893 94.0184 50.4747 93.5918 50.752C93.1651 51.04 92.6051 51.184 91.9118 51.184C91.6771 51.184 91.4211 51.168 91.1438 51.136V50.064H91.8958C92.6318 50.064 93.1331 49.7227 93.3998 49.04L93.6878 48.272L90.5838 39.744H91.9918L93.1598 43.184C93.5758 44.4 93.9704 45.5893 94.3438 46.752C94.6531 45.76 95.0478 44.5653 95.5278 43.168Z" fill="#989EA4"/>
</svg>
